<svg width="70" height="70" viewBox="0 0 70 70" fill="none" xmlns="http://www.w3.org/2000/svg">
<path d="M60.4808 16.1499V21.9832H54.6475H60.4808" stroke="black" stroke-linecap="round" stroke-linejoin="round"/>
<path d="M22.1287 31.2924C22.1287 28.927 24.0478 27.0078 26.4132 27.0078C28.7787 27.0078 30.6978 28.927 30.6978 31.2924C30.6978 36.6474 22.1316 36.6474 22.1316 42.9882H30.6978" stroke="black" stroke-linecap="round" stroke-linejoin="round"/>
<path d="M46.3575 35.0875L39.0308 35.0087C38.6167 35.0029 38.2812 34.6675 38.2812 34.2504V27.0112" stroke="black" stroke-linecap="round" stroke-linejoin="round"/>
<path d="M46.3448 27.1841V42.9924" stroke="black" stroke-linecap="round" stroke-linejoin="round"/>
<path d="M59.2081 21.9854C54.5327 13.5212 45.4473 7.77832 34.9998 7.77832C19.9644 7.77832 7.77856 19.9671 7.77856 34.9996C7.77856 50.0321 19.9644 62.2208 34.9998 62.2208C50.0352 62.2208 62.2211 50.0321 62.2211 34.9996" stroke="black" stroke-linecap="round" stroke-linejoin="round"/>
</svg>
