<svg width="71" height="70" viewBox="0 0 71 70" fill="none" xmlns="http://www.w3.org/2000/svg">
<path d="M44.0833 20.4165H56.692C57.8849 20.4165 58.9583 21.1428 59.3987 22.2511L64.0828 33.9586C64.357 34.6469 64.4999 35.3819 64.4999 36.1228V53.4711C64.4999 55.0811 63.1933 56.3878 61.5833 56.3878H56.2428" stroke="black" stroke-linecap="round" stroke-linejoin="round"/>
<path d="M46.9999 56.6414H24.1624" stroke="black" stroke-linecap="round" stroke-linejoin="round"/>
<path d="M64.4999 40.8332H52.8333V29.1665H62.1666" stroke="black" stroke-linecap="round" stroke-linejoin="round"/>
<path d="M36.9551 14.5835H41.1667C42.7767 14.5835 44.0834 15.8902 44.0834 17.5002V43.7502H6.16675" stroke="black" stroke-linecap="round" stroke-linejoin="round"/>
<path d="M54.8872 53.3631C56.6926 55.1685 56.6926 58.0939 54.8872 59.8964C53.0817 61.7019 50.1563 61.7019 48.3538 59.8964C46.5484 58.091 46.5484 55.1656 48.3538 53.3631C50.1592 51.5606 53.0847 51.5606 54.8872 53.3631" stroke="black" stroke-linecap="round" stroke-linejoin="round"/>
<path d="M22.8031 53.3631C24.6085 55.1685 24.6085 58.0939 22.8031 59.8964C20.9976 61.7019 18.0722 61.7019 16.2697 59.8964C14.4672 58.091 14.4643 55.1656 16.2697 53.3631C18.0751 51.5606 20.9976 51.5606 22.8031 53.3631" stroke="black" stroke-linecap="round" stroke-linejoin="round"/>
<path d="M14.9167 56.6302H9.08341C7.47341 56.6302 6.16675 55.3235 6.16675 53.7135V17.5002C6.16675 15.8902 7.47341 14.5835 9.08341 14.5835H12.6942" stroke="black" stroke-linecap="round" stroke-linejoin="round"/>
<path d="M24.8255 27.1773C18.1259 27.1773 12.6951 21.7465 12.6951 15.0469C12.6951 8.48442 18.2747 2.91068 24.8342 2.91651C31.5309 2.92234 36.953 8.35026 36.953 15.0469C36.953 21.7436 31.5251 27.1773 24.8255 27.1773" stroke="black"/>
<path d="M30.2133 12.3525L23.4729 19.093L19.4304 15.0475" stroke="black" stroke-linecap="round" stroke-linejoin="round"/>
</svg>
